<svg xmlns="http://www.w3.org/2000/svg" viewBox="0 0 400 600" role="img" aria-label="Toy Story illustrated poster">
<rect width="400" height="600" fill="#164d70"/>
<circle cx="34" cy="30" r="1" fill="#e8c764" opacity=".5"/><circle cx="107" cy="77" r="1" fill="#e8c764" opacity=".5"/><circle cx="180" cy="124" r="1" fill="#e8c764" opacity=".5"/><circle cx="253" cy="171" r="1" fill="#e8c764" opacity=".5"/><circle cx="326" cy="218" r="1" fill="#e8c764" opacity=".5"/><circle cx="29" cy="265" r="1" fill="#e8c764" opacity=".5"/><circle cx="102" cy="312" r="1" fill="#e8c764" opacity=".5"/><circle cx="175" cy="69" r="1" fill="#e8c764" opacity=".5"/><circle cx="248" cy="116" r="1" fill="#e8c764" opacity=".5"/><circle cx="321" cy="163" r="1" fill="#e8c764" opacity=".5"/><circle cx="24" cy="210" r="1" fill="#e8c764" opacity=".5"/><circle cx="97" cy="257" r="1" fill="#e8c764" opacity=".5"/><circle cx="170" cy="304" r="1" fill="#e8c764" opacity=".5"/><circle cx="243" cy="61" r="1" fill="#e8c764" opacity=".5"/><circle cx="316" cy="108" r="1" fill="#e8c764" opacity=".5"/><circle cx="19" cy="155" r="1" fill="#e8c764" opacity=".5"/><circle cx="92" cy="202" r="1" fill="#e8c764" opacity=".5"/><circle cx="165" cy="249" r="1" fill="#e8c764" opacity=".5"/><circle cx="238" cy="296" r="1" fill="#e8c764" opacity=".5"/><circle cx="311" cy="53" r="1" fill="#e8c764" opacity=".5"/><circle cx="384" cy="100" r="1" fill="#e8c764" opacity=".5"/><circle cx="87" cy="147" r="1" fill="#e8c764" opacity=".5"/><circle cx="160" cy="194" r="1" fill="#e8c764" opacity=".5"/><circle cx="233" cy="241" r="1" fill="#e8c764" opacity=".5"/><circle cx="306" cy="288" r="1" fill="#e8c764" opacity=".5"/><circle cx="379" cy="45" r="1" fill="#e8c764" opacity=".5"/><circle cx="82" cy="92" r="1" fill="#e8c764" opacity=".5"/><circle cx="155" cy="139" r="1" fill="#e8c764" opacity=".5"/><circle cx="228" cy="186" r="1" fill="#e8c764" opacity=".5"/><circle cx="301" cy="233" r="1" fill="#e8c764" opacity=".5"/><circle cx="374" cy="280" r="1" fill="#e8c764" opacity=".5"/><circle cx="77" cy="37" r="1" fill="#e8c764" opacity=".5"/><circle cx="150" cy="84" r="1" fill="#e8c764" opacity=".5"/><circle cx="223" cy="131" r="1" fill="#e8c764" opacity=".5"/><circle cx="296" cy="178" r="1" fill="#e8c764" opacity=".5"/><circle cx="200" cy="250" r="118" fill="#e08243"/><circle cx="200" cy="250" r="91" fill="none" stroke="#e8c764" stroke-width="2"/><path d="m200 141 24 76 79 0-64 46 25 76-64-47-64 47 25-76-64-46h79z" fill="#e8c764" opacity=".8"/>
<rect x="18" y="18" width="364" height="564" fill="none" stroke="#e8c764" stroke-opacity=".4"/>
<text x="200" y="48" text-anchor="middle" fill="#e8c764" font-family="sans-serif" font-size="9" letter-spacing="4">THE MOODMOVIE COLLECTION</text>
<rect x="25" y="419" width="350" height="146" fill="#164d70" opacity=".94"/>
<text x="200" y="462" text-anchor="middle" fill="#e8c764" font-family="Georgia,serif" font-weight="bold" font-size="30.0">TOY STORY</text>
<text x="200" y="558" text-anchor="middle" fill="#e8c764" font-family="sans-serif" font-size="10" letter-spacing="3">1995 · ANIMATION</text>
</svg>