<svg xmlns="http://www.w3.org/2000/svg" viewBox="0 0 400 600" role="img" aria-label="La La Land illustrated poster">
<rect width="400" height="600" fill="#162548"/>
<circle cx="186" cy="30" r="1" fill="#e5c575" opacity=".5"/><circle cx="259" cy="77" r="1" fill="#e5c575" opacity=".5"/><circle cx="332" cy="124" r="1" fill="#e5c575" opacity=".5"/><circle cx="35" cy="171" r="1" fill="#e5c575" opacity=".5"/><circle cx="108" cy="218" r="1" fill="#e5c575" opacity=".5"/><circle cx="181" cy="265" r="1" fill="#e5c575" opacity=".5"/><circle cx="254" cy="312" r="1" fill="#e5c575" opacity=".5"/><circle cx="327" cy="69" r="1" fill="#e5c575" opacity=".5"/><circle cx="30" cy="116" r="1" fill="#e5c575" opacity=".5"/><circle cx="103" cy="163" r="1" fill="#e5c575" opacity=".5"/><circle cx="176" cy="210" r="1" fill="#e5c575" opacity=".5"/><circle cx="249" cy="257" r="1" fill="#e5c575" opacity=".5"/><circle cx="322" cy="304" r="1" fill="#e5c575" opacity=".5"/><circle cx="25" cy="61" r="1" fill="#e5c575" opacity=".5"/><circle cx="98" cy="108" r="1" fill="#e5c575" opacity=".5"/><circle cx="171" cy="155" r="1" fill="#e5c575" opacity=".5"/><circle cx="244" cy="202" r="1" fill="#e5c575" opacity=".5"/><circle cx="317" cy="249" r="1" fill="#e5c575" opacity=".5"/><circle cx="20" cy="296" r="1" fill="#e5c575" opacity=".5"/><circle cx="93" cy="53" r="1" fill="#e5c575" opacity=".5"/><circle cx="166" cy="100" r="1" fill="#e5c575" opacity=".5"/><circle cx="239" cy="147" r="1" fill="#e5c575" opacity=".5"/><circle cx="312" cy="194" r="1" fill="#e5c575" opacity=".5"/><circle cx="15" cy="241" r="1" fill="#e5c575" opacity=".5"/><circle cx="88" cy="288" r="1" fill="#e5c575" opacity=".5"/><circle cx="161" cy="45" r="1" fill="#e5c575" opacity=".5"/><circle cx="234" cy="92" r="1" fill="#e5c575" opacity=".5"/><circle cx="307" cy="139" r="1" fill="#e5c575" opacity=".5"/><circle cx="380" cy="186" r="1" fill="#e5c575" opacity=".5"/><circle cx="83" cy="233" r="1" fill="#e5c575" opacity=".5"/><circle cx="156" cy="280" r="1" fill="#e5c575" opacity=".5"/><circle cx="229" cy="37" r="1" fill="#e5c575" opacity=".5"/><circle cx="302" cy="84" r="1" fill="#e5c575" opacity=".5"/><circle cx="375" cy="131" r="1" fill="#e5c575" opacity=".5"/><circle cx="78" cy="178" r="1" fill="#e5c575" opacity=".5"/><circle cx="285" cy="100" r="39" fill="#e5c575" opacity=".85"/><path d="M0 390Q180 355 400 375V600H0Z" fill="#101322"/><path d="M63 326h270v5H63zM88 326V162h5v164M67 162h46l-9-27H77z" fill="#e5c575"/><circle cx="191" cy="276" r="10" fill="#080d18"/><path d="m184 286-12 44 32 0-8-43 39 8 3-8-38-13z" fill="#080d18"/><circle cx="241" cy="277" r="10" fill="#080d18"/><path d="m235 288-19 42h43l-14-43 38-20-5-7-33 16z" fill="#080d18"/><path d="m180 327-10 35m27-35 18 25m18-25-9 35m22-35 16 35" stroke="#080d18" stroke-width="8"/>
<rect x="18" y="18" width="364" height="564" fill="none" stroke="#e5c575" stroke-opacity=".4"/>
<text x="200" y="48" text-anchor="middle" fill="#e5c575" font-family="sans-serif" font-size="9" letter-spacing="4">THE MOODMOVIE COLLECTION</text>
<rect x="25" y="419" width="350" height="146" fill="#162548" opacity=".94"/>
<text x="200" y="462" text-anchor="middle" fill="#e5c575" font-family="Georgia,serif" font-weight="bold" font-size="30.0">LA LA LAND</text>
<text x="200" y="558" text-anchor="middle" fill="#e5c575" font-family="sans-serif" font-size="10" letter-spacing="3">2016 · ROMANCE</text>
</svg>